<svg xmlns="http://www.w3.org/2000/svg" fill="currentColor" width="1200" height="1100"
  viewBox="0 0 120 110">
  <path
    d="M1134.52,196.68c0-4.14-3.36-7.5-7.5-7.5h-78.75c-15.88,0-28.75,12.87-28.75,28.75s12.87,28.75,28.75,28.75h11.25c4.14,0,7.5-3.36,7.5-7.5s-3.36-7.5-7.5-7.5h-11.25c-7.59-.01-13.74-6.16-13.75-13.75.01-7.59,6.16-13.74,13.75-13.75h78.75c4.14,0,7.5-3.36,7.5-7.5Zm-115,85c0,4.14,3.36,7.5,7.5,7.5h78.75c15.88,0,28.75-12.87,28.75-28.75s-12.87-28.75-28.75-28.75h-11.25c-4.14,0-7.5,3.36-7.5,7.5s3.36,7.5,7.5,7.5h11.25c7.59.01,13.74,6.16,13.75,13.75-.01,7.59-6.16,13.74-13.75,13.75h-78.75c-4.14,0-7.5,3.36-7.5,7.5Z"
    transform="translate(-1019.52-187.141996)" />
</svg>