<svg xmlns="http://www.w3.org/2000/svg" fill="#000" viewBox="0 0 1000 110">
  <g transform="translate(-136-298.579995)">
    <path
      d="M661.5,111c4.14,0,7.5-3.36,7.5-7.5v-54.010718c0-4.14-3.36-8.593904-7.5-8.593904s-7.5,4.453904-7.5,8.593904L654,103.5c0,4.14,3.36,7.5,7.5,7.5Z"
      transform="translate(53.5 288.473)" />
    <path
      d="M756.5,131h-95c-4.14,0-7.5,3.36-7.5,7.5s3.36,7.5,7.5,7.5h95c4.14,0,7.5-3.36,7.5-7.5s-3.36-7.5-7.5-7.5Z"
      transform="matrix(1 0 0-1 6 446.618)" />
  </g>
  <path
    d="M1134.52,196.68c0-4.14-3.36-7.5-7.5-7.5h-78.75c-15.88,0-28.75,12.87-28.75,28.75s12.87,28.75,28.75,28.75h11.25c4.14,0,7.5-3.36,7.5-7.5s-3.36-7.5-7.5-7.5h-11.25c-7.59-.01-13.74-6.16-13.75-13.75.01-7.59,6.16-13.74,13.75-13.75h78.75c4.14,0,7.5-3.36,7.5-7.5Zm-115,85c0,4.14,3.36,7.5,7.5,7.5h78.75c15.88,0,28.75-12.87,28.75-28.75s-12.87-28.75-28.75-28.75h-11.25c-4.14,0-7.5,3.36-7.5,7.5s3.36,7.5,7.5,7.5h11.25c7.59.01,13.74,6.16,13.75,13.75-.01,7.59-6.16,13.74-13.75,13.75h-78.75c-4.14,0-7.5,3.36-7.5,7.5Z"
    transform="translate(-1019.52-187.141996)" />
  <path
    d="M279.145,276.68h93.875c4.14,0,7.5,2.11,7.5,6.25s-3.36,6.25-7.5,6.25l-82.25.000005h-11.625L268.02,289.18c-4.14,0-7.5-3.36-7.5-7.5v-8.874995-12.25-46.75-10.125-7.000005c0-4.14,3.36-7.5,7.5-7.5l7.1875.000005h9.125L373.02,189.18c4.14,0,7.5,2.11,7.5,6.25s-3.36,6.25-7.5,6.25q-93.875,0-93.875,0"
    transform="matrix(0-.833333 1.2 0 169.984 319.138004)" stroke-linecap="round" />
  <path
    d="M20.781999,9.29l1.512698-.000003L23.993,9.29v5.42l-1.708584-.065799-1.502419-.057856L20.781999,9.29ZM0,9.29l1.4878-.035892l1.628985-.039292.000001,1.235317v2.691231L3.116785,14.71l-1.623382-.000001L0,14.71l-.000001-1.441207v-2.735349L0,9.29Zm20.781993,7.827c-.000551.665827-.189468,2.970513-.855295,2.971064h-15.888819c-.665436-.001102-.920542-2.305627-.921092-2.971064l-.000002-.858-1.598786.000001L0,16.259l-.000001.985315L0,21.511c.003294,1.229838.999164,2.226154,2.229,2.23h19.53c1.233904.002214,2.236589-.995102,2.241-2.229v-5.252l-1.709471-.000532L20.781997,16.259l-.000004.858ZM21.763,0.258h-19.53c-1.230227.003297-2.226703.999773-2.23,2.23l.000002,4.235381L0.003,7.74l1.537296.000003L3.116783,7.74l.000002-.858c0-.665665.255429-2.698345.921094-2.698897l15.888819.188259c.665665.000552.855297,1.844973.855297,2.510638l.000003.858l1.537296.000003L24,7.74v-5.253c-.004407-1.232336-1.004656-2.229008-2.237-2.229Z"
    transform="matrix(5.08198 0 0 4.24992 263.809 0.996004)" />
  <path
    d="M13.3512,20.4035c1.1108,0,2.169-.2217,3.139-.6157l2.6913,2.6944C17.4555,23.4458,15.4688,24,13.3512,24C6.729,24,1.3594,18.627,1.3594,12.0006C1.3594,5.3729,6.7289,0,13.3512,0c2.0964,0,4.0652.5406,5.7789,1.4865L16.4834,4.136c-.9687-.3918-2.0236-.6134-3.1322-.6134-4.6379,0-8.3976,3.779-8.3976,8.441c0,4.6609,3.7597,8.4399,8.3976,8.4399Zm2.176-12.1544l5.5104-5.5139l1.5773,1.5772-5.5104,5.514-1.5773-1.5773Zm-2.2328,5.6348c-1.0784,0-1.952-.8775-1.952-1.961c0-1.0825.8736-1.9611,1.952-1.9611s1.952.8786,1.952,1.961c0,1.0836-.8736,1.9611-1.952,1.9611Zm9.3462,5.6953l-1.5772,1.5783-5.5105-5.514l1.5774-1.5783l5.5103,5.514Z"
    transform="matrix(5.6921 0 0 4.44966 122.64 0.000004)" />
  <path
    d="M10.53,10.73c-.1-.31-.19-.61-.29-.92s-.19-.6-.27-.89c-.08-.28-.15-.54-.22-.78h-.02c-.09.43-.2.86-.34,1.29-.15.48-.3.98-.46,1.48-.14.51-.29.98-.44,1.4h2.54c-.06-.211-.14-.46-.23-.721-.09-.269-.18-.559-.27-.859ZM30.164208,0.3h-37.198063c-2.35,0-3.220796,1.938999-3.220796,4.288999v15.085341c0,2.35.870802,4.025659,3.220802,4.025659h37.198058c2.35,0,3.502866-1.67566,3.502866-4.02566l.000003-15.08534c0-2.35-1.15287-4.288999-3.50287-4.288999ZM14.7,16.83h-2.091c-.069.01-.139-.04-.159-.11l-.82-2.38h-3.72l-.76,2.35c-.02.09-.1.15-.19.141h-1.88c-.11,0-.14-.061-.11-.18L8.19,7.38c.03-.1.06-.21.1-.33.04-.21.06-.43.06-.65-.01-.05.03-.1.08-.11h2.59c.08,0,.12.03.13.08l3.65,10.3c.03.109,0,.16-.1.16Zm3.4-.15c0,.11-.039.16-.129.16h-1.961c-.1,0-.15-.061-.15-.16v-7.7c0-.1.041-.14.131-.14h1.98c.09,0,.129.05.129.14v7.7Zm-.209-9.03c-.231.24-.571.37-.911.35-.33.01-.65-.12-.891-.35-.23-.25-.35-.58-.34-.92-.01-.34.12-.66.359-.89.242-.23.562-.35.892-.35.391,0,.689.12.91.35.22.24.34.56.33.89.01.34-.11.67-.349.92Z"
    transform="matrix(4.74448 0 0 4.563754 792.767405-1.369122)" />
  <path
    d="M21.7101,3.2348c-.011846-.000108-.021437-.009655-.0216-.0215.001-.0815.003-.3698.004-.424c0-.1292-.1428-.1831-.2117-.0829-.0113.016-.1457.212-.2287.3323-.004551.006428-.011925.010263-.0198.0103h-6.5508c-.025737.000006-.046756-.020568-.0473-.0463l-.0131-.177c-.000217-.01423.00593-.027813.016764-.037041s.025222-.013137.039236-.010659l.335.0319c.028914.002535.055378-.016337.0624-.0445l.2441-.989c.004839-.022864-.007672-.04585-.0295-.0542l-.2268-.0848c-.013064-.00494-.022885-.015957-.0263-.0295-.0412-.1722-.3766-1.3235-1.9935-1.581-.7867-.125-1.302.2107-1.577.4784-.121873.119464-.22377.257724-.3018.4095l-.0965.2125c-.008.0164-.046.2157-.046.234l.0513.9815c.000164.033502.015726.065068.0422.0856l.3546.153-.1958.3244c-.006643.023776-.028314.040213-.053.0402s-.417.0108-.6227.0192c-.3856.0155-1.2444.4858-1.8773,1.8385-.6219,1.3282-.724,1.5496-.724,1.5496-.013121.025438-.039801.040962-.0684.0398l-.5776.0019c-.0356,0-.0736.0285-.0886.0608L6.3637,8.9986c-.0149.0323-.006.081.0173.1081l.627.3918c.017169.014373.024722.037226.0195.059l-.3274.9664c-.004193.021806-.012145.042717-.0235.0618l-.4343.3824c-.01813.015133-.030664.035906-.0356.059l-.5978,1.5308c-.00788.027009-.032665.045557-.0608.0455l-.3355.0018c-.084317.000338-.154514.064815-.162.1488l-.2007,2.2883c-.003874.040408-.009177.080667-.0159.1207l-.1583.908c-.006193.020976-.017658.040014-.0333.0553l-.5584.4263c-.2559.2443-.5988.6903-.7665,1.0015l-1.86,3.9235c-.045.0833-.0811.227-.0788.3221l.1321.2354c.002.0842-.0319.4559-.0707.5307L0.817,23.6545c-.014003.026582-.015107.058102-.003.0856l.0309.0706.0932.1859l1.8913.0029c.1173.0106.247-.1396.2507-.3005l.1027-1.2965-.0268-.1952l3.6063-4.232c.0942-.1146.222-.3168.2861-.4506L8.767,13.7355c.020179-.041712.056404-.073462.1004-.088l.1086-.035c.065966-.02147.138356-.000549.1827.0528.1505.1807.5042.781.6765,1.0315.1425.2079.8495,1.2304,1.1582,1.5675.0853.0926.3481.198.4658.2696.038321.023332.051166.072893.029.1119l-1.0298,1.8083-.4549,2.1357c-.01603.049805-.027937.100843-.0356.1526l-.4118,1.4831c.003.1873-.141.2856-.1527.5064l-.15,1.084c-.00091.01599.004821.031646.015839.04327s.026345.018183.042361.01813l2.5445.014c.0951-.0003.1902-.0045.2854-.0067.025238-.001436.05042-.003737.0755-.0069.1242-.0158.5629-.0754.75-.1503.1097-.0388.1809-.0819.2268-.1295.1855-.1935.2002-.278.2034-.3975.001-.0212-.011-.0726-.0283-.1049-.0053-.0117-.0316-.0382-.059-.0477l-1.1815-.3562c-.075679-.023203-.1419-.070108-.1889-.1338l-.3172-.469c-.015152-.032859-.00825-.071678.0173-.0973l.618-.609c.021129-.020215.037609-.044783.0483-.072l1.9036-4.488c.089-.285.0595-.6056,0-.9445-.044-.2504-.6854-1.3264-.8532-1.6236-.1476-.262-1.0677-1.8707-1.286-2.2517-.0793-.1376-.1894-.1328-.2287-.276l-.0726-1.1173c-.00325-.011538-.001127-.023927.005779-.033724s.017862-.01596.029821-.016776l.3312-.0276c.031347-.002655.059227-.020979.0741-.0487l1.147-2.1544c.015812-.029528.015054-.065171-.002-.094L13.12,7.9435c-.015962-.026888-.016343-.060254-.001-.0875l.3515-.3796c.00702-.0125.018723-.021696.032529-.02556s.028582-.00208.041071.00496l.9343.5266c.056663.032459.120702.049846.186.0505.259-.0019.6858-.1549.908-.2906.058648-.035997.106523-.08712.1386-.148l.4583-1.0703c.006-.0136.0262-.0117.029.0028l.1278.5953c.003148.017456.013454.0328.028422.042316s.033235.012339.050378.007784l1.3494-.3c.0354-.008057.057706-.043122.05-.0786l-.318-1.3437c-.004107-.018292-.000875-.037465.009-.0534l.1313-.2036c.016248-.025048.028401-.052526.036-.0814l.1589-.725c.003996-.01876.020519-.032204.0397-.0323l3.7327.0047c.024832.000437.048778-.009228.066349-.02678s.027262-.041487.026851-.06632v-.6336c.000213-.01184.00976-.021387.0216-.0216h1.4393c.025564-.000055.04629-.020736.0464-.0463v-.2855c-.00011-.025564-.020836-.046245-.0464-.0463h-1.4398l.0019.0023Z"
    transform="matrix(3.029969 0 0 3.029969 604.216665 27.425684)" />
  <path d="" fill="none" stroke="#3f5787" stroke-width="3.84" />
</svg>